<?xml version="1.0" encoding="UTF-8" standalone="no"?>
<!DOCTYPE svg PUBLIC "-//W3C//DTD SVG 1.1//EN"
 "http://www.w3.org/Graphics/SVG/1.1/DTD/svg11.dtd">
<!-- Generated by graphviz version 2.47.0 (20210316.0004)
 -->
<!-- Title: dependencies Pages: 1 -->
<svg width="504pt" height="284pt"
 viewBox="0.00 0.00 504.00 284.00" xmlns="http://www.w3.org/2000/svg" xmlns:xlink="http://www.w3.org/1999/xlink">
<g id="graph0" class="graph" transform="scale(1 1) rotate(0) translate(4 280)">
<title>dependencies</title>
<polygon fill="white" stroke="transparent" points="-4,4 -4,-280 500,-280 500,4 -4,4"/>
<text text-anchor="start" x="227.01" y="-42.4" font-family="Times-12" font-weight="bold" font-size="14.00">Legend</text>
<polygon fill="#ffffb3" stroke="transparent" points="14,-10 14,-30 34,-30 34,-10 14,-10"/>
<text text-anchor="start" x="37.63" y="-15.4" font-family="Times-12" font-size="14.00"> &#160;Declarations</text>
<polygon fill="#8dd3c7" stroke="transparent" points="127,-10 127,-30 147,-30 147,-10 127,-10"/>
<text text-anchor="start" x="150.73" y="-15.4" font-family="Times-12" font-size="14.00"> &#160;Module</text>
<polygon fill="#80b1d3" stroke="transparent" points="213,-10 213,-30 233,-30 233,-10 213,-10"/>
<text text-anchor="start" x="236.78" y="-15.4" font-family="Times-12" font-size="14.00"> &#160;Bootstrap</text>
<polygon fill="#fdb462" stroke="transparent" points="310,-10 310,-30 330,-30 330,-10 310,-10"/>
<text text-anchor="start" x="333.67" y="-15.4" font-family="Times-12" font-size="14.00"> &#160;Providers</text>
<polygon fill="#fb8072" stroke="transparent" points="406,-10 406,-30 426,-30 426,-10 406,-10"/>
<text text-anchor="start" x="429.73" y="-15.4" font-family="Times-12" font-size="14.00"> &#160;Exports</text>
<g id="clust1" class="cluster">
<title>cluster_OrdersModule</title>
<polygon fill="none" stroke="black" stroke-dasharray="1,5" points="109,-70 109,-268 387,-268 387,-70 109,-70"/>
</g>
<g id="clust6" class="cluster">
<title>cluster_OrdersModule_providers</title>
<polygon fill="none" stroke="black" points="231,-78 231,-130 379,-130 379,-78 231,-78"/>
</g>
<g id="clust3" class="cluster">
<title>cluster_OrdersModule_imports</title>
<polygon fill="none" stroke="black" points="117,-78 117,-130 223,-130 223,-78 117,-78"/>
</g>
<g id="clust4" class="cluster">
<title>cluster_OrdersModule_exports</title>
<polygon fill="none" stroke="black" points="182,-208 182,-260 298,-260 298,-208 182,-208"/>
</g>
<!-- CartsModule -->
<g id="node1" class="node">
<title>CartsModule</title>
<polygon fill="#8dd3c7" stroke="black" points="214.6,-122 211.6,-126 190.6,-126 187.6,-122 125.4,-122 125.4,-86 214.6,-86 214.6,-122"/>
<text text-anchor="middle" x="170" y="-99.8" font-family="Times,serif" font-size="14.00">CartsModule</text>
</g>
<!-- OrdersModule -->
<g id="node2" class="node">
<title>OrdersModule</title>
<polygon fill="#8dd3c7" stroke="black" points="288.64,-187 285.64,-191 264.64,-191 261.64,-187 191.36,-187 191.36,-151 288.64,-151 288.64,-187"/>
<text text-anchor="middle" x="240" y="-164.8" font-family="Times,serif" font-size="14.00">OrdersModule</text>
</g>
<!-- CartsModule&#45;&gt;OrdersModule -->
<g id="edge1" class="edge">
<title>CartsModule&#45;&gt;OrdersModule</title>
<path fill="none" stroke="black" d="M202.87,-122.11C202.87,-122.11 202.87,-140.99 202.87,-140.99"/>
<polygon fill="black" stroke="black" points="199.37,-140.99 202.87,-150.99 206.37,-140.99 199.37,-140.99"/>
</g>
<!-- OrdersService  -->
<g id="node3" class="node">
<title>OrdersService </title>
<polygon fill="#fb8072" stroke="black" points="289.57,-252 190.43,-252 190.43,-216 289.57,-216 289.57,-252"/>
<text text-anchor="middle" x="240" y="-229.8" font-family="Times,serif" font-size="14.00">OrdersService </text>
</g>
<!-- OrdersModule&#45;&gt;OrdersService  -->
<g id="edge2" class="edge">
<title>OrdersModule&#45;&gt;OrdersService </title>
<path fill="none" stroke="black" stroke-dasharray="5,2" d="M240,-187.11C240,-187.11 240,-205.99 240,-205.99"/>
<polygon fill="black" stroke="black" points="236.5,-205.99 240,-215.99 243.5,-205.99 236.5,-205.99"/>
</g>
<!-- OrdersService -->
<g id="node4" class="node">
<title>OrdersService</title>
<ellipse fill="#fdb462" stroke="black" cx="305" cy="-104" rx="66.03" ry="18"/>
<text text-anchor="middle" x="305" y="-99.8" font-family="Times,serif" font-size="14.00">OrdersService</text>
</g>
<!-- OrdersService&#45;&gt;OrdersModule -->
<g id="edge3" class="edge">
<title>OrdersService&#45;&gt;OrdersModule</title>
<path fill="none" stroke="black" d="M263.78,-118.1C263.78,-118.1 263.78,-140.72 263.78,-140.72"/>
<polygon fill="black" stroke="black" points="260.28,-140.72 263.78,-150.72 267.28,-140.72 260.28,-140.72"/>
</g>
</g>
</svg>
