<?xml version="1.0" encoding="UTF-8" standalone="no"?>
<!DOCTYPE svg PUBLIC "-//W3C//DTD SVG 1.1//EN"
 "http://www.w3.org/Graphics/SVG/1.1/DTD/svg11.dtd">
<!-- Generated by graphviz version 2.47.0 (20210316.0004)
 -->
<!-- Title: dependencies Pages: 1 -->
<svg width="4162pt" height="447pt"
 viewBox="0.00 0.00 4162.00 447.00" xmlns="http://www.w3.org/2000/svg" xmlns:xlink="http://www.w3.org/1999/xlink">
<g id="graph0" class="graph" transform="scale(1 1) rotate(0) translate(4 443)">
<title>dependencies</title>
<polygon fill="white" stroke="transparent" points="-4,4 -4,-443 4158,-443 4158,4 -4,4"/>
<text text-anchor="start" x="2056.01" y="-42.4" font-family="Times-12" font-weight="bold" font-size="14.00">Legend</text>
<polygon fill="#ffffb3" stroke="transparent" points="1843,-10 1843,-30 1863,-30 1863,-10 1843,-10"/>
<text text-anchor="start" x="1866.63" y="-15.4" font-family="Times-12" font-size="14.00"> &#160;Declarations</text>
<polygon fill="#8dd3c7" stroke="transparent" points="1956,-10 1956,-30 1976,-30 1976,-10 1956,-10"/>
<text text-anchor="start" x="1979.73" y="-15.4" font-family="Times-12" font-size="14.00"> &#160;Module</text>
<polygon fill="#80b1d3" stroke="transparent" points="2042,-10 2042,-30 2062,-30 2062,-10 2042,-10"/>
<text text-anchor="start" x="2065.78" y="-15.4" font-family="Times-12" font-size="14.00"> &#160;Bootstrap</text>
<polygon fill="#fdb462" stroke="transparent" points="2139,-10 2139,-30 2159,-30 2159,-10 2139,-10"/>
<text text-anchor="start" x="2162.67" y="-15.4" font-family="Times-12" font-size="14.00"> &#160;Providers</text>
<polygon fill="#fb8072" stroke="transparent" points="2235,-10 2235,-30 2255,-30 2255,-10 2235,-10"/>
<text text-anchor="start" x="2258.73" y="-15.4" font-family="Times-12" font-size="14.00"> &#160;Exports</text>
<g id="clust1" class="cluster">
<title>cluster_AddressesModule</title>
<polygon fill="none" stroke="black" stroke-dasharray="1,5" points="3954,-70 3954,-279 4146,-279 4146,-70 3954,-70"/>
</g>
<g id="clust4" class="cluster">
<title>cluster_AddressesModule_exports</title>
<polygon fill="none" stroke="black" points="4002,-219 4002,-271 4138,-271 4138,-219 4002,-219"/>
</g>
<g id="clust6" class="cluster">
<title>cluster_AddressesModule_providers</title>
<polygon fill="none" stroke="black" points="3962,-78 3962,-130 4138,-130 4138,-78 3962,-78"/>
</g>
<g id="clust7" class="cluster">
<title>cluster_AppModule</title>
<polygon fill="none" stroke="black" stroke-dasharray="1,5" points="1847,-146 1847,-423 3234,-423 3234,-146 1847,-146"/>
</g>
<g id="clust9" class="cluster">
<title>cluster_AppModule_imports</title>
<polygon fill="none" stroke="black" points="1855,-154 1855,-347 2748,-347 2748,-154 1855,-154"/>
</g>
<g id="clust12" class="cluster">
<title>cluster_AppModule_providers</title>
<polygon fill="none" stroke="black" points="2756,-295 2756,-347 3226,-347 3226,-295 2756,-295"/>
</g>
<g id="clust13" class="cluster">
<title>cluster_AuthModule</title>
<polygon fill="none" stroke="black" stroke-dasharray="1,5" points="8,-211 8,-279 307,-279 307,-211 8,-211"/>
</g>
<g id="clust18" class="cluster">
<title>cluster_AuthModule_providers</title>
<polygon fill="none" stroke="black" points="16,-219 16,-271 299,-271 299,-219 16,-219"/>
</g>
<g id="clust19" class="cluster">
<title>cluster_CartsModule</title>
<polygon fill="none" stroke="black" stroke-dasharray="1,5" points="3376,-287 3376,-355 3644,-355 3644,-287 3376,-287"/>
</g>
<g id="clust22" class="cluster">
<title>cluster_CartsModule_exports</title>
<polygon fill="none" stroke="black" points="3528,-295 3528,-347 3636,-347 3636,-295 3528,-295"/>
</g>
<g id="clust24" class="cluster">
<title>cluster_CartsModule_providers</title>
<polygon fill="none" stroke="black" points="3384,-295 3384,-347 3520,-347 3520,-295 3384,-295"/>
</g>
<g id="clust25" class="cluster">
<title>cluster_CategoriesModule</title>
<polygon fill="none" stroke="black" stroke-dasharray="1,5" points="1131,-211 1131,-279 1471,-279 1471,-211 1131,-211"/>
</g>
<g id="clust28" class="cluster">
<title>cluster_CategoriesModule_exports</title>
<polygon fill="none" stroke="black" points="1325,-219 1325,-271 1463,-271 1463,-219 1325,-219"/>
</g>
<g id="clust30" class="cluster">
<title>cluster_CategoriesModule_providers</title>
<polygon fill="none" stroke="black" points="1139,-219 1139,-271 1317,-271 1317,-219 1139,-219"/>
</g>
<g id="clust37" class="cluster">
<title>cluster_DatabaseModule</title>
<polygon fill="none" stroke="black" stroke-dasharray="1,5" points="2316,-70 2316,-138 2782,-138 2782,-70 2316,-70"/>
</g>
<g id="clust42" class="cluster">
<title>cluster_DatabaseModule_providers</title>
<polygon fill="none" stroke="black" points="2324,-78 2324,-130 2774,-130 2774,-78 2324,-78"/>
</g>
<g id="clust43" class="cluster">
<title>cluster_FilesModule</title>
<polygon fill="none" stroke="black" stroke-dasharray="1,5" points="2158,-70 2158,-138 2308,-138 2308,-70 2158,-70"/>
</g>
<g id="clust48" class="cluster">
<title>cluster_FilesModule_providers</title>
<polygon fill="none" stroke="black" points="2166,-78 2166,-130 2300,-130 2300,-78 2166,-78"/>
</g>
<g id="clust49" class="cluster">
<title>cluster_OrdersModule</title>
<polygon fill="none" stroke="black" stroke-dasharray="1,5" points="1551,-363 1551,-431 1839,-431 1839,-363 1551,-363"/>
</g>
<g id="clust52" class="cluster">
<title>cluster_OrdersModule_exports</title>
<polygon fill="none" stroke="black" points="1715,-371 1715,-423 1831,-423 1831,-371 1715,-371"/>
</g>
<g id="clust54" class="cluster">
<title>cluster_OrdersModule_providers</title>
<polygon fill="none" stroke="black" points="1559,-371 1559,-423 1707,-423 1707,-371 1559,-371"/>
</g>
<g id="clust55" class="cluster">
<title>cluster_PermissionsModule</title>
<polygon fill="none" stroke="black" stroke-dasharray="1,5" points="1479,-211 1479,-279 1839,-279 1839,-211 1479,-211"/>
</g>
<g id="clust58" class="cluster">
<title>cluster_PermissionsModule_exports</title>
<polygon fill="none" stroke="black" points="1685,-219 1685,-271 1831,-271 1831,-219 1685,-219"/>
</g>
<g id="clust60" class="cluster">
<title>cluster_PermissionsModule_providers</title>
<polygon fill="none" stroke="black" points="1487,-219 1487,-271 1677,-271 1677,-219 1487,-219"/>
</g>
<g id="clust61" class="cluster">
<title>cluster_ProductsModule</title>
<polygon fill="none" stroke="black" stroke-dasharray="1,5" points="315,-211 315,-279 629,-279 629,-211 315,-211"/>
</g>
<g id="clust64" class="cluster">
<title>cluster_ProductsModule_exports</title>
<polygon fill="none" stroke="black" points="495,-219 495,-271 621,-271 621,-219 495,-219"/>
</g>
<g id="clust66" class="cluster">
<title>cluster_ProductsModule_providers</title>
<polygon fill="none" stroke="black" points="323,-219 323,-271 487,-271 487,-219 323,-219"/>
</g>
<g id="clust67" class="cluster">
<title>cluster_PromotionsModule</title>
<polygon fill="none" stroke="black" stroke-dasharray="1,5" points="637,-211 637,-279 989,-279 989,-211 637,-211"/>
</g>
<g id="clust70" class="cluster">
<title>cluster_PromotionsModule_exports</title>
<polygon fill="none" stroke="black" points="839,-219 839,-271 981,-271 981,-219 839,-219"/>
</g>
<g id="clust72" class="cluster">
<title>cluster_PromotionsModule_providers</title>
<polygon fill="none" stroke="black" points="645,-219 645,-271 831,-271 831,-219 645,-219"/>
</g>
<g id="clust73" class="cluster">
<title>cluster_ReviewsModule</title>
<polygon fill="none" stroke="black" stroke-dasharray="1,5" points="3652,-287 3652,-355 3964,-355 3964,-287 3652,-287"/>
</g>
<g id="clust76" class="cluster">
<title>cluster_ReviewsModule_exports</title>
<polygon fill="none" stroke="black" points="3830,-295 3830,-347 3956,-347 3956,-295 3830,-295"/>
</g>
<g id="clust78" class="cluster">
<title>cluster_ReviewsModule_providers</title>
<polygon fill="none" stroke="black" points="3660,-295 3660,-347 3822,-347 3822,-295 3660,-295"/>
</g>
<g id="clust79" class="cluster">
<title>cluster_RolesModule</title>
<polygon fill="none" stroke="black" stroke-dasharray="1,5" points="997,-211 997,-279 1123,-279 1123,-211 997,-211"/>
</g>
<g id="clust82" class="cluster">
<title>cluster_RolesModule_exports</title>
<polygon fill="none" stroke="black" points="1005,-219 1005,-271 1115,-271 1115,-219 1005,-219"/>
</g>
<g id="clust85" class="cluster">
<title>cluster_UsersModule</title>
<polygon fill="none" stroke="black" stroke-dasharray="1,5" points="3242,-287 3242,-355 3368,-355 3368,-287 3242,-287"/>
</g>
<g id="clust88" class="cluster">
<title>cluster_UsersModule_exports</title>
<polygon fill="none" stroke="black" points="3250,-295 3250,-347 3360,-347 3360,-295 3250,-295"/>
</g>
<!-- AddressesService  -->
<g id="node1" class="node">
<title>AddressesService </title>
<polygon fill="#fb8072" stroke="black" points="4129.51,-263 4010.49,-263 4010.49,-227 4129.51,-227 4129.51,-263"/>
<text text-anchor="middle" x="4070" y="-240.8" font-family="Times,serif" font-size="14.00">AddressesService </text>
</g>
<!-- AddressesModule -->
<g id="node2" class="node">
<title>AddressesModule</title>
<polygon fill="#8dd3c7" stroke="black" points="4093.58,-198 4090.58,-202 4069.58,-202 4066.58,-198 3976.42,-198 3976.42,-162 4093.58,-162 4093.58,-198"/>
<text text-anchor="middle" x="4035" y="-175.8" font-family="Times,serif" font-size="14.00">AddressesModule</text>
</g>
<!-- AddressesModule&#45;&gt;AddressesService  -->
<g id="edge1" class="edge">
<title>AddressesModule&#45;&gt;AddressesService </title>
<path fill="none" stroke="black" stroke-dasharray="5,2" d="M4052.02,-198.11C4052.02,-198.11 4052.02,-216.99 4052.02,-216.99"/>
<polygon fill="black" stroke="black" points="4048.52,-216.99 4052.02,-226.99 4055.52,-216.99 4048.52,-216.99"/>
</g>
<!-- CartsModule -->
<g id="node5" class="node">
<title>CartsModule</title>
<polygon fill="#8dd3c7" stroke="black" points="2614.6,-263 2611.6,-267 2590.6,-267 2587.6,-263 2525.4,-263 2525.4,-227 2614.6,-227 2614.6,-263"/>
<text text-anchor="middle" x="2570" y="-240.8" font-family="Times,serif" font-size="14.00">CartsModule</text>
</g>
<!-- AddressesModule&#45;&gt;CartsModule -->
<g id="edge23" class="edge">
<title>AddressesModule&#45;&gt;CartsModule</title>
<path fill="none" stroke="black" d="M3987.81,-198.13C3987.81,-208.31 3987.81,-219 3987.81,-219 3987.81,-219 2579.08,-219 2579.08,-219 2579.08,-219 2579.08,-219.79 2579.08,-219.79"/>
<polygon fill="black" stroke="black" points="2575.58,-216.94 2579.08,-226.94 2582.58,-216.94 2575.58,-216.94"/>
</g>
<!-- AppModule -->
<g id="node16" class="node">
<title>AppModule</title>
<polygon fill="#8dd3c7" stroke="black" points="2626.66,-415 2623.66,-419 2602.66,-419 2599.66,-415 2543.34,-415 2543.34,-379 2626.66,-379 2626.66,-415"/>
<text text-anchor="middle" x="2585" y="-392.8" font-family="Times,serif" font-size="14.00">AppModule</text>
</g>
<!-- AddressesModule&#45;&gt;AppModule -->
<g id="edge3" class="edge">
<title>AddressesModule&#45;&gt;AppModule</title>
<path fill="none" stroke="black" d="M3999.15,-198.11C3999.15,-251.74 3999.15,-406 3999.15,-406 3999.15,-406 2636.94,-406 2636.94,-406"/>
<polygon fill="black" stroke="black" points="2636.94,-402.5 2626.94,-406 2636.94,-409.5 2636.94,-402.5"/>
</g>
<!-- AddressesService -->
<g id="node3" class="node">
<title>AddressesService</title>
<ellipse fill="#fdb462" stroke="black" cx="4050" cy="-104" rx="79.85" ry="18"/>
<text text-anchor="middle" x="4050" y="-99.8" font-family="Times,serif" font-size="14.00">AddressesService</text>
</g>
<!-- AddressesService&#45;&gt;AddressesModule -->
<g id="edge2" class="edge">
<title>AddressesService&#45;&gt;AddressesModule</title>
<path fill="none" stroke="black" d="M4035,-122.01C4035,-122.01 4035,-151.85 4035,-151.85"/>
<polygon fill="black" stroke="black" points="4031.5,-151.85 4035,-161.85 4038.5,-151.85 4031.5,-151.85"/>
</g>
<!-- AuthModule -->
<g id="node4" class="node">
<title>AuthModule</title>
<polygon fill="#8dd3c7" stroke="black" points="2483.55,-339 2480.55,-343 2459.55,-343 2456.55,-339 2396.45,-339 2396.45,-303 2483.55,-303 2483.55,-339"/>
<text text-anchor="middle" x="2440" y="-316.8" font-family="Times,serif" font-size="14.00">AuthModule</text>
</g>
<!-- AuthModule&#45;&gt;AppModule -->
<g id="edge4" class="edge">
<title>AuthModule&#45;&gt;AppModule</title>
<path fill="none" stroke="black" d="M2440,-339.31C2440,-359.15 2440,-388 2440,-388 2440,-388 2533.06,-388 2533.06,-388"/>
<polygon fill="black" stroke="black" points="2533.06,-391.5 2543.06,-388 2533.06,-384.5 2533.06,-391.5"/>
</g>
<!-- OrdersModule -->
<g id="node9" class="node">
<title>OrdersModule</title>
<polygon fill="#8dd3c7" stroke="black" points="2599.64,-339 2596.64,-343 2575.64,-343 2572.64,-339 2502.36,-339 2502.36,-303 2599.64,-303 2599.64,-339"/>
<text text-anchor="middle" x="2551" y="-316.8" font-family="Times,serif" font-size="14.00">OrdersModule</text>
</g>
<!-- CartsModule&#45;&gt;OrdersModule -->
<g id="edge34" class="edge">
<title>CartsModule&#45;&gt;OrdersModule</title>
<path fill="none" stroke="black" d="M2562.64,-263.01C2562.64,-263.01 2562.64,-292.85 2562.64,-292.85"/>
<polygon fill="black" stroke="black" points="2559.14,-292.85 2562.64,-302.85 2566.14,-292.85 2559.14,-292.85"/>
</g>
<!-- CartsModule&#45;&gt;AppModule -->
<g id="edge5" class="edge">
<title>CartsModule&#45;&gt;AppModule</title>
<path fill="none" stroke="black" d="M2611.6,-263.03C2611.6,-263.03 2611.6,-368.99 2611.6,-368.99"/>
<polygon fill="black" stroke="black" points="2608.1,-368.99 2611.6,-378.99 2615.1,-368.99 2608.1,-368.99"/>
</g>
<!-- CartsService  -->
<g id="node22" class="node">
<title>CartsService </title>
<polygon fill="#fb8072" stroke="black" points="3627.52,-339 3536.48,-339 3536.48,-303 3627.52,-303 3627.52,-339"/>
<text text-anchor="middle" x="3582" y="-316.8" font-family="Times,serif" font-size="14.00">CartsService </text>
</g>
<!-- CartsModule&#45;&gt;CartsService  -->
<g id="edge26" class="edge">
<title>CartsModule&#45;&gt;CartsService </title>
<path fill="none" stroke="black" stroke-dasharray="5,2" d="M2605.71,-263.06C2605.71,-267.49 2605.71,-271 2605.71,-271 2605.71,-271 3582,-271 3582,-271 3582,-271 3582,-292.95 3582,-292.95"/>
<polygon fill="black" stroke="black" points="3578.5,-292.95 3582,-302.95 3585.5,-292.95 3578.5,-292.95"/>
</g>
<!-- CategoriesModule -->
<g id="node6" class="node">
<title>CategoriesModule</title>
<polygon fill="#8dd3c7" stroke="black" points="2124.92,-198 2121.92,-202 2100.92,-202 2097.92,-198 2005.08,-198 2005.08,-162 2124.92,-162 2124.92,-198"/>
<text text-anchor="middle" x="2065" y="-175.8" font-family="Times,serif" font-size="14.00">CategoriesModule</text>
</g>
<!-- CategoriesModule&#45;&gt;AppModule -->
<g id="edge6" class="edge">
<title>CategoriesModule&#45;&gt;AppModule</title>
<path fill="none" stroke="black" d="M2094.85,-198.17C2094.85,-251.19 2094.85,-402 2094.85,-402 2094.85,-402 2533.21,-402 2533.21,-402"/>
<polygon fill="black" stroke="black" points="2533.21,-405.5 2543.21,-402 2533.21,-398.5 2533.21,-405.5"/>
</g>
<!-- CategoriesService  -->
<g id="node24" class="node">
<title>CategoriesService </title>
<polygon fill="#fb8072" stroke="black" points="1454.84,-263 1333.16,-263 1333.16,-227 1454.84,-227 1454.84,-263"/>
<text text-anchor="middle" x="1394" y="-240.8" font-family="Times,serif" font-size="14.00">CategoriesService </text>
</g>
<!-- CategoriesModule&#45;&gt;CategoriesService  -->
<g id="edge28" class="edge">
<title>CategoriesModule&#45;&gt;CategoriesService </title>
<path fill="none" stroke="black" stroke-dasharray="5,2" d="M2065,-198.2C2065,-204.03 2065,-209 2065,-209 2065,-209 1394,-209 1394,-209 1394,-209 1394,-216.58 1394,-216.58"/>
<polygon fill="black" stroke="black" points="1390.5,-216.58 1394,-226.58 1397.5,-216.58 1390.5,-216.58"/>
</g>
<!-- DatabaseModule -->
<g id="node7" class="node">
<title>DatabaseModule</title>
<polygon fill="#8dd3c7" stroke="black" points="2398.35,-198 2395.35,-202 2374.35,-202 2371.35,-198 2287.65,-198 2287.65,-162 2398.35,-162 2398.35,-198"/>
<text text-anchor="middle" x="2343" y="-175.8" font-family="Times,serif" font-size="14.00">DatabaseModule</text>
</g>
<!-- DatabaseModule&#45;&gt;AppModule -->
<g id="edge7" class="edge">
<title>DatabaseModule&#45;&gt;AppModule</title>
<path fill="none" stroke="black" d="M2341.9,-198.16C2341.9,-249.67 2341.9,-393 2341.9,-393 2341.9,-393 2533.21,-393 2533.21,-393"/>
<polygon fill="black" stroke="black" points="2533.21,-396.5 2543.21,-393 2533.21,-389.5 2533.21,-396.5"/>
</g>
<!-- FilesModule -->
<g id="node8" class="node">
<title>FilesModule</title>
<polygon fill="#8dd3c7" stroke="black" points="2630.27,-198 2627.27,-202 2606.27,-202 2603.27,-198 2543.73,-198 2543.73,-162 2630.27,-162 2630.27,-198"/>
<text text-anchor="middle" x="2587" y="-175.8" font-family="Times,serif" font-size="14.00">FilesModule</text>
</g>
<!-- FilesModule&#45;&gt;AppModule -->
<g id="edge8" class="edge">
<title>FilesModule&#45;&gt;AppModule</title>
<path fill="none" stroke="black" d="M2617,-198.13C2617,-198.13 2617,-368.77 2617,-368.77"/>
<polygon fill="black" stroke="black" points="2613.5,-368.77 2617,-378.77 2620.5,-368.77 2613.5,-368.77"/>
</g>
<!-- OrdersModule&#45;&gt;AppModule -->
<g id="edge9" class="edge">
<title>OrdersModule&#45;&gt;AppModule</title>
<path fill="none" stroke="black" d="M2571.5,-339.01C2571.5,-339.01 2571.5,-368.85 2571.5,-368.85"/>
<polygon fill="black" stroke="black" points="2568,-368.85 2571.5,-378.85 2575,-368.85 2568,-368.85"/>
</g>
<!-- OrdersService  -->
<g id="node30" class="node">
<title>OrdersService </title>
<polygon fill="#fb8072" stroke="black" points="1822.57,-415 1723.43,-415 1723.43,-379 1822.57,-379 1822.57,-415"/>
<text text-anchor="middle" x="1773" y="-392.8" font-family="Times,serif" font-size="14.00">OrdersService </text>
</g>
<!-- OrdersModule&#45;&gt;OrdersService  -->
<g id="edge35" class="edge">
<title>OrdersModule&#45;&gt;OrdersService </title>
<path fill="none" stroke="black" stroke-dasharray="5,2" d="M2529.51,-339.21C2529.51,-365.51 2529.51,-411 2529.51,-411 2529.51,-411 1832.64,-411 1832.64,-411"/>
<polygon fill="black" stroke="black" points="1832.64,-407.5 1822.64,-411 1832.64,-414.5 1832.64,-407.5"/>
</g>
<!-- PermissionsModule -->
<g id="node10" class="node">
<title>PermissionsModule</title>
<polygon fill="#8dd3c7" stroke="black" points="2269.71,-198 2266.71,-202 2245.71,-202 2242.71,-198 2142.29,-198 2142.29,-162 2269.71,-162 2269.71,-198"/>
<text text-anchor="middle" x="2206" y="-175.8" font-family="Times,serif" font-size="14.00">PermissionsModule</text>
</g>
<!-- PermissionsModule&#45;&gt;AppModule -->
<g id="edge10" class="edge">
<title>PermissionsModule&#45;&gt;AppModule</title>
<path fill="none" stroke="black" d="M2237.8,-198.13C2237.8,-250.28 2237.8,-397 2237.8,-397 2237.8,-397 2533.12,-397 2533.12,-397"/>
<polygon fill="black" stroke="black" points="2533.12,-400.5 2543.12,-397 2533.12,-393.5 2533.12,-400.5"/>
</g>
<!-- PermissionsService  -->
<g id="node32" class="node">
<title>PermissionsService </title>
<polygon fill="#fb8072" stroke="black" points="1822.64,-263 1693.36,-263 1693.36,-227 1822.64,-227 1822.64,-263"/>
<text text-anchor="middle" x="1758" y="-240.8" font-family="Times,serif" font-size="14.00">PermissionsService </text>
</g>
<!-- PermissionsModule&#45;&gt;PermissionsService  -->
<g id="edge37" class="edge">
<title>PermissionsModule&#45;&gt;PermissionsService </title>
<path fill="none" stroke="black" stroke-dasharray="5,2" d="M2206,-198.11C2206,-217.34 2206,-245 2206,-245 2206,-245 1832.66,-245 1832.66,-245"/>
<polygon fill="black" stroke="black" points="1832.66,-241.5 1822.66,-245 1832.66,-248.5 1832.66,-241.5"/>
</g>
<!-- ProductsModule -->
<g id="node11" class="node">
<title>ProductsModule</title>
<polygon fill="#8dd3c7" stroke="black" points="2525.04,-198 2522.04,-202 2501.04,-202 2498.04,-198 2416.96,-198 2416.96,-162 2525.04,-162 2525.04,-198"/>
<text text-anchor="middle" x="2471" y="-175.8" font-family="Times,serif" font-size="14.00">ProductsModule</text>
</g>
<!-- ProductsModule&#45;&gt;CartsModule -->
<g id="edge24" class="edge">
<title>ProductsModule&#45;&gt;CartsModule</title>
<path fill="none" stroke="black" d="M2520.88,-198.11C2520.88,-217.34 2520.88,-245 2520.88,-245 2520.88,-245 2521.33,-245 2521.33,-245"/>
<polygon fill="black" stroke="black" points="2515.41,-248.5 2525.41,-245 2515.41,-241.5 2515.41,-248.5"/>
</g>
<!-- ReviewsModule -->
<g id="node13" class="node">
<title>ReviewsModule</title>
<polygon fill="#8dd3c7" stroke="black" points="2739.76,-263 2736.76,-267 2715.76,-267 2712.76,-263 2632.24,-263 2632.24,-227 2739.76,-227 2739.76,-263"/>
<text text-anchor="middle" x="2686" y="-240.8" font-family="Times,serif" font-size="14.00">ReviewsModule</text>
</g>
<!-- ProductsModule&#45;&gt;ReviewsModule -->
<g id="edge43" class="edge">
<title>ProductsModule&#45;&gt;ReviewsModule</title>
<path fill="none" stroke="black" d="M2516.49,-198.49C2516.49,-210.14 2516.49,-223 2516.49,-223 2516.49,-223 2635.42,-223 2635.42,-223 2635.42,-223 2635.42,-223.38 2635.42,-223.38"/>
<polygon fill="black" stroke="black" points="2631.92,-216.83 2635.42,-226.83 2638.92,-216.83 2631.92,-216.83"/>
</g>
<!-- ProductsModule&#45;&gt;AppModule -->
<g id="edge11" class="edge">
<title>ProductsModule&#45;&gt;AppModule</title>
<path fill="none" stroke="black" d="M2512.1,-198.22C2512.1,-230.65 2512.1,-295 2512.1,-295 2512.1,-295 2602.76,-295 2602.76,-295 2602.76,-295 2602.76,-368.76 2602.76,-368.76"/>
<polygon fill="black" stroke="black" points="2599.26,-368.76 2602.76,-378.76 2606.26,-368.76 2599.26,-368.76"/>
</g>
<!-- ProductsService  -->
<g id="node34" class="node">
<title>ProductsService </title>
<polygon fill="#fb8072" stroke="black" points="613.47,-263 502.53,-263 502.53,-227 613.47,-227 613.47,-263"/>
<text text-anchor="middle" x="558" y="-240.8" font-family="Times,serif" font-size="14.00">ProductsService </text>
</g>
<!-- ProductsModule&#45;&gt;ProductsService  -->
<g id="edge39" class="edge">
<title>ProductsModule&#45;&gt;ProductsService </title>
<path fill="none" stroke="black" stroke-dasharray="5,2" d="M2453.12,-198.12C2453.12,-200.97 2453.12,-203 2453.12,-203 2453.12,-203 558,-203 558,-203 558,-203 558,-216.94 558,-216.94"/>
<polygon fill="black" stroke="black" points="554.5,-216.94 558,-226.94 561.5,-216.94 554.5,-216.94"/>
</g>
<!-- PromotionsModule -->
<g id="node12" class="node">
<title>PromotionsModule</title>
<polygon fill="#8dd3c7" stroke="black" points="1987.11,-198 1984.11,-202 1963.11,-202 1960.11,-198 1862.89,-198 1862.89,-162 1987.11,-162 1987.11,-198"/>
<text text-anchor="middle" x="1925" y="-175.8" font-family="Times,serif" font-size="14.00">PromotionsModule</text>
</g>
<!-- PromotionsModule&#45;&gt;CartsModule -->
<g id="edge25" class="edge">
<title>PromotionsModule&#45;&gt;CartsModule</title>
<path fill="none" stroke="black" d="M1945.68,-198.04C1945.68,-210.56 1945.68,-225 1945.68,-225 1945.68,-225 2534.53,-225 2534.53,-225 2534.53,-225 2534.53,-225.18 2534.53,-225.18"/>
<polygon fill="black" stroke="black" points="2531.03,-216.85 2534.53,-226.85 2538.03,-216.85 2531.03,-216.85"/>
</g>
<!-- PromotionsModule&#45;&gt;AppModule -->
<g id="edge12" class="edge">
<title>PromotionsModule&#45;&gt;AppModule</title>
<path fill="none" stroke="black" d="M1904.32,-198.11C1904.32,-251.74 1904.32,-406 1904.32,-406 1904.32,-406 2533.19,-406 2533.19,-406"/>
<polygon fill="black" stroke="black" points="2533.19,-409.5 2543.19,-406 2533.19,-402.5 2533.19,-409.5"/>
</g>
<!-- PromotionsService  -->
<g id="node36" class="node">
<title>PromotionsService </title>
<polygon fill="#fb8072" stroke="black" points="973.04,-263 846.96,-263 846.96,-227 973.04,-227 973.04,-263"/>
<text text-anchor="middle" x="910" y="-240.8" font-family="Times,serif" font-size="14.00">PromotionsService </text>
</g>
<!-- PromotionsModule&#45;&gt;PromotionsService  -->
<g id="edge41" class="edge">
<title>PromotionsModule&#45;&gt;PromotionsService </title>
<path fill="none" stroke="black" stroke-dasharray="5,2" d="M1862.65,-186C1641.82,-186 910,-186 910,-186 910,-186 910,-216.98 910,-216.98"/>
<polygon fill="black" stroke="black" points="906.5,-216.98 910,-226.98 913.5,-216.98 906.5,-216.98"/>
</g>
<!-- ReviewsModule&#45;&gt;AppModule -->
<g id="edge13" class="edge">
<title>ReviewsModule&#45;&gt;AppModule</title>
<path fill="none" stroke="black" d="M2632.21,-245C2626.05,-245 2621.92,-245 2621.92,-245 2621.92,-245 2621.92,-368.97 2621.92,-368.97"/>
<polygon fill="black" stroke="black" points="2618.42,-368.97 2621.92,-378.97 2625.42,-368.97 2618.42,-368.97"/>
</g>
<!-- ReviewsService  -->
<g id="node38" class="node">
<title>ReviewsService </title>
<polygon fill="#fb8072" stroke="black" points="3947.69,-339 3838.31,-339 3838.31,-303 3947.69,-303 3947.69,-339"/>
<text text-anchor="middle" x="3893" y="-316.8" font-family="Times,serif" font-size="14.00">ReviewsService </text>
</g>
<!-- ReviewsModule&#45;&gt;ReviewsService  -->
<g id="edge44" class="edge">
<title>ReviewsModule&#45;&gt;ReviewsService </title>
<path fill="none" stroke="black" stroke-dasharray="5,2" d="M2739.81,-239C2974.04,-239 3893,-239 3893,-239 3893,-239 3893,-292.8 3893,-292.8"/>
<polygon fill="black" stroke="black" points="3889.5,-292.8 3893,-302.8 3896.5,-292.8 3889.5,-292.8"/>
</g>
<!-- RolesModule -->
<g id="node14" class="node">
<title>RolesModule</title>
<polygon fill="#8dd3c7" stroke="black" points="2739.94,-198 2736.94,-202 2715.94,-202 2712.94,-198 2648.06,-198 2648.06,-162 2739.94,-162 2739.94,-198"/>
<text text-anchor="middle" x="2694" y="-175.8" font-family="Times,serif" font-size="14.00">RolesModule</text>
</g>
<!-- RolesModule&#45;&gt;AuthModule -->
<g id="edge19" class="edge">
<title>RolesModule&#45;&gt;AuthModule</title>
<path fill="none" stroke="black" d="M2684.86,-198.04C2684.86,-205.75 2684.86,-213 2684.86,-213 2684.86,-213 2407.36,-213 2407.36,-213 2407.36,-213 2407.36,-292.68 2407.36,-292.68"/>
<polygon fill="black" stroke="black" points="2403.86,-292.68 2407.36,-302.68 2410.86,-292.68 2403.86,-292.68"/>
</g>
<!-- UsersModule -->
<g id="node15" class="node">
<title>UsersModule</title>
<polygon fill="#8dd3c7" stroke="black" points="2507.92,-263 2504.92,-267 2483.92,-267 2480.92,-263 2416.08,-263 2416.08,-227 2507.92,-227 2507.92,-263"/>
<text text-anchor="middle" x="2462" y="-240.8" font-family="Times,serif" font-size="14.00">UsersModule</text>
</g>
<!-- RolesModule&#45;&gt;UsersModule -->
<g id="edge48" class="edge">
<title>RolesModule&#45;&gt;UsersModule</title>
<path fill="none" stroke="black" d="M2703.14,-198.32C2703.14,-206.79 2703.14,-215 2703.14,-215 2703.14,-215 2471.32,-215 2471.32,-215 2471.32,-215 2471.32,-216.86 2471.32,-216.86"/>
<polygon fill="black" stroke="black" points="2467.82,-216.86 2471.32,-226.86 2474.82,-216.86 2467.82,-216.86"/>
</g>
<!-- RolesModule&#45;&gt;AppModule -->
<g id="edge14" class="edge">
<title>RolesModule&#45;&gt;AppModule</title>
<path fill="none" stroke="black" d="M2721.43,-198.1C2721.43,-209.09 2721.43,-221 2721.43,-221 2721.43,-221 2619.46,-221 2619.46,-221 2619.46,-221 2619.46,-368.83 2619.46,-368.83"/>
<polygon fill="black" stroke="black" points="2615.96,-368.83 2619.46,-378.83 2622.96,-368.83 2615.96,-368.83"/>
</g>
<!-- RolesService  -->
<g id="node40" class="node">
<title>RolesService </title>
<polygon fill="#fb8072" stroke="black" points="1106.86,-263 1013.14,-263 1013.14,-227 1106.86,-227 1106.86,-263"/>
<text text-anchor="middle" x="1060" y="-240.8" font-family="Times,serif" font-size="14.00">RolesService </text>
</g>
<!-- RolesModule&#45;&gt;RolesService  -->
<g id="edge46" class="edge">
<title>RolesModule&#45;&gt;RolesService </title>
<path fill="none" stroke="black" stroke-dasharray="5,2" d="M2666.57,-198.17C2666.57,-202.05 2666.57,-205 2666.57,-205 2666.57,-205 1060,-205 1060,-205 1060,-205 1060,-216.87 1060,-216.87"/>
<polygon fill="black" stroke="black" points="1056.5,-216.87 1060,-226.87 1063.5,-216.87 1056.5,-216.87"/>
</g>
<!-- UsersModule&#45;&gt;AuthModule -->
<g id="edge20" class="edge">
<title>UsersModule&#45;&gt;AuthModule</title>
<path fill="none" stroke="black" d="M2450.03,-263.01C2450.03,-263.01 2450.03,-292.85 2450.03,-292.85"/>
<polygon fill="black" stroke="black" points="2446.53,-292.85 2450.03,-302.85 2453.53,-292.85 2446.53,-292.85"/>
</g>
<!-- UsersModule&#45;&gt;AppModule -->
<g id="edge15" class="edge">
<title>UsersModule&#45;&gt;AppModule</title>
<path fill="none" stroke="black" d="M2496.05,-263.17C2496.05,-300.85 2496.05,-384 2496.05,-384 2496.05,-384 2533.13,-384 2533.13,-384"/>
<polygon fill="black" stroke="black" points="2533.13,-387.5 2543.13,-384 2533.13,-380.5 2533.13,-387.5"/>
</g>
<!-- UsersService  -->
<g id="node41" class="node">
<title>UsersService </title>
<polygon fill="#fb8072" stroke="black" points="3351.85,-339 3258.15,-339 3258.15,-303 3351.85,-303 3351.85,-339"/>
<text text-anchor="middle" x="3305" y="-316.8" font-family="Times,serif" font-size="14.00">UsersService </text>
</g>
<!-- UsersModule&#45;&gt;UsersService  -->
<g id="edge49" class="edge">
<title>UsersModule&#45;&gt;UsersService </title>
<path fill="none" stroke="black" stroke-dasharray="5,2" d="M2489.91,-263.06C2489.91,-274.44 2489.91,-287 2489.91,-287 2489.91,-287 3305,-287 3305,-287 3305,-287 3305,-292.81 3305,-292.81"/>
<polygon fill="black" stroke="black" points="3301.5,-292.81 3305,-302.81 3308.5,-292.81 3301.5,-292.81"/>
</g>
<!-- AppService -->
<g id="node17" class="node">
<title>AppService</title>
<ellipse fill="#fdb462" stroke="black" cx="3161" cy="-321" rx="56.74" ry="18"/>
<text text-anchor="middle" x="3161" y="-316.8" font-family="Times,serif" font-size="14.00">AppService</text>
</g>
<!-- AppService&#45;&gt;AppModule -->
<g id="edge16" class="edge">
<title>AppService&#45;&gt;AppModule</title>
<path fill="none" stroke="black" d="M3161,-339.01C3161,-361.49 3161,-397 3161,-397 3161,-397 2636.89,-397 2636.89,-397"/>
<polygon fill="black" stroke="black" points="2636.89,-393.5 2626.89,-397 2636.89,-400.5 2636.89,-393.5"/>
</g>
<!-- CartExistsRule -->
<g id="node18" class="node">
<title>CartExistsRule</title>
<ellipse fill="#fdb462" stroke="black" cx="3017" cy="-321" rx="69.51" ry="18"/>
<text text-anchor="middle" x="3017" y="-316.8" font-family="Times,serif" font-size="14.00">CartExistsRule</text>
</g>
<!-- CartExistsRule&#45;&gt;AppModule -->
<g id="edge17" class="edge">
<title>CartExistsRule&#45;&gt;AppModule</title>
<path fill="none" stroke="black" d="M3017,-339.31C3017,-359.15 3017,-388 3017,-388 3017,-388 2636.81,-388 2636.81,-388"/>
<polygon fill="black" stroke="black" points="2636.81,-384.5 2626.81,-388 2636.81,-391.5 2636.81,-384.5"/>
</g>
<!-- ProductExistsRule -->
<g id="node19" class="node">
<title>ProductExistsRule</title>
<ellipse fill="#fdb462" stroke="black" cx="2847" cy="-321" rx="82.84" ry="18"/>
<text text-anchor="middle" x="2847" y="-316.8" font-family="Times,serif" font-size="14.00">ProductExistsRule</text>
</g>
<!-- ProductExistsRule&#45;&gt;AppModule -->
<g id="edge18" class="edge">
<title>ProductExistsRule&#45;&gt;AppModule</title>
<path fill="none" stroke="black" d="M2763.79,-321C2700.55,-321 2624.37,-321 2624.37,-321 2624.37,-321 2624.37,-368.99 2624.37,-368.99"/>
<polygon fill="black" stroke="black" points="2620.87,-368.99 2624.37,-378.99 2627.87,-368.99 2620.87,-368.99"/>
</g>
<!-- AuthService -->
<g id="node20" class="node">
<title>AuthService</title>
<ellipse fill="#fdb462" stroke="black" cx="232" cy="-245" rx="59.11" ry="18"/>
<text text-anchor="middle" x="232" y="-240.8" font-family="Times,serif" font-size="14.00">AuthService</text>
</g>
<!-- AuthService&#45;&gt;AuthModule -->
<g id="edge21" class="edge">
<title>AuthService&#45;&gt;AuthModule</title>
<path fill="none" stroke="black" d="M232,-263.03C232,-283.77 232,-315 232,-315 232,-315 2386.39,-315 2386.39,-315"/>
<polygon fill="black" stroke="black" points="2386.39,-318.5 2396.39,-315 2386.39,-311.5 2386.39,-318.5"/>
</g>
<!-- LocalStrategy -->
<g id="node21" class="node">
<title>LocalStrategy</title>
<ellipse fill="#fdb462" stroke="black" cx="89" cy="-245" rx="65.41" ry="18"/>
<text text-anchor="middle" x="89" y="-240.8" font-family="Times,serif" font-size="14.00">LocalStrategy</text>
</g>
<!-- LocalStrategy&#45;&gt;AuthModule -->
<g id="edge22" class="edge">
<title>LocalStrategy&#45;&gt;AuthModule</title>
<path fill="none" stroke="black" d="M89,-263.2C89,-287.36 89,-327 89,-327 89,-327 2386.42,-327 2386.42,-327"/>
<polygon fill="black" stroke="black" points="2386.42,-330.5 2396.42,-327 2386.42,-323.5 2386.42,-330.5"/>
</g>
<!-- CartsService -->
<g id="node23" class="node">
<title>CartsService</title>
<ellipse fill="#fdb462" stroke="black" cx="3452" cy="-321" rx="60.25" ry="18"/>
<text text-anchor="middle" x="3452" y="-316.8" font-family="Times,serif" font-size="14.00">CartsService</text>
</g>
<!-- CartsService&#45;&gt;CartsModule -->
<g id="edge27" class="edge">
<title>CartsService&#45;&gt;CartsModule</title>
<path fill="none" stroke="black" d="M3452,-302.94C3452,-291.56 3452,-279 3452,-279 3452,-279 2608.66,-279 2608.66,-279 2608.66,-279 2608.66,-273.19 2608.66,-273.19"/>
<polygon fill="black" stroke="black" points="2612.16,-273.19 2608.66,-263.19 2605.16,-273.19 2612.16,-273.19"/>
</g>
<!-- CategoriesService -->
<g id="node25" class="node">
<title>CategoriesService</title>
<ellipse fill="#fdb462" stroke="black" cx="1228" cy="-245" rx="81.07" ry="18"/>
<text text-anchor="middle" x="1228" y="-240.8" font-family="Times,serif" font-size="14.00">CategoriesService</text>
</g>
<!-- CategoriesService&#45;&gt;CategoriesModule -->
<g id="edge29" class="edge">
<title>CategoriesService&#45;&gt;CategoriesModule</title>
<path fill="none" stroke="black" d="M1228,-226.89C1228,-217.1 1228,-207 1228,-207 1228,-207 2035.15,-207 2035.15,-207 2035.15,-207 2035.15,-206.12 2035.15,-206.12"/>
<polygon fill="black" stroke="black" points="2038.65,-208.16 2035.15,-198.16 2031.65,-208.16 2038.65,-208.16"/>
</g>
<!-- DatabaseService -->
<g id="node26" class="node">
<title>DatabaseService</title>
<ellipse fill="#fdb462" stroke="black" cx="2407" cy="-104" rx="75.26" ry="18"/>
<text text-anchor="middle" x="2407" y="-99.8" font-family="Times,serif" font-size="14.00">DatabaseService</text>
</g>
<!-- DatabaseService&#45;&gt;DatabaseModule -->
<g id="edge30" class="edge">
<title>DatabaseService&#45;&gt;DatabaseModule</title>
<path fill="none" stroke="black" d="M2348.32,-115.54C2348.32,-115.54 2348.32,-151.83 2348.32,-151.83"/>
<polygon fill="black" stroke="black" points="2344.82,-151.83 2348.32,-161.83 2351.82,-151.83 2344.82,-151.83"/>
</g>
<!-- RolesService -->
<g id="node27" class="node">
<title>RolesService</title>
<ellipse fill="#fdb462" stroke="black" cx="2562" cy="-104" rx="61.97" ry="18"/>
<text text-anchor="middle" x="2562" y="-99.8" font-family="Times,serif" font-size="14.00">RolesService</text>
</g>
<!-- RolesService&#45;&gt;DatabaseModule -->
<g id="edge31" class="edge">
<title>RolesService&#45;&gt;DatabaseModule</title>
<path fill="none" stroke="black" d="M2512.64,-115.2C2512.64,-126.4 2512.64,-142 2512.64,-142 2512.64,-142 2365.02,-142 2365.02,-142 2365.02,-142 2365.02,-151.89 2365.02,-151.89"/>
<polygon fill="black" stroke="black" points="2361.52,-151.89 2365.02,-161.89 2368.52,-151.89 2361.52,-151.89"/>
</g>
<!-- RolesService&#45;&gt;RolesModule -->
<g id="edge47" class="edge">
<title>RolesService&#45;&gt;RolesModule</title>
<path fill="none" stroke="black" d="M2624.29,-104C2632.82,-104 2638.72,-104 2638.72,-104 2638.72,-104 2638.72,-180 2638.72,-180 2638.72,-180 2639.66,-180 2639.66,-180"/>
<polygon fill="black" stroke="black" points="2638.1,-183.5 2648.1,-180 2638.1,-176.5 2638.1,-183.5"/>
</g>
<!-- UsersService -->
<g id="node28" class="node">
<title>UsersService</title>
<ellipse fill="#fdb462" stroke="black" cx="2704" cy="-104" rx="61.95" ry="18"/>
<text text-anchor="middle" x="2704" y="-99.8" font-family="Times,serif" font-size="14.00">UsersService</text>
</g>
<!-- UsersService&#45;&gt;DatabaseModule -->
<g id="edge32" class="edge">
<title>UsersService&#45;&gt;DatabaseModule</title>
<path fill="none" stroke="black" d="M2694,-121.87C2694,-135.52 2694,-152 2694,-152 2694,-152 2381.72,-152 2381.72,-152 2381.72,-152 2381.72,-152.98 2381.72,-152.98"/>
<polygon fill="black" stroke="black" points="2378.22,-151.79 2381.72,-161.79 2385.22,-151.79 2378.22,-151.79"/>
</g>
<!-- UsersService&#45;&gt;UsersModule -->
<g id="edge50" class="edge">
<title>UsersService&#45;&gt;UsersModule</title>
<path fill="none" stroke="black" d="M2751.98,-115.67C2751.98,-144.54 2751.98,-217 2751.98,-217 2751.98,-217 2489.51,-217 2489.51,-217 2489.51,-217 2489.51,-217.98 2489.51,-217.98"/>
<polygon fill="black" stroke="black" points="2486.01,-216.79 2489.51,-226.79 2493.01,-216.79 2486.01,-216.79"/>
</g>
<!-- FilesService -->
<g id="node29" class="node">
<title>FilesService</title>
<ellipse fill="#fdb462" stroke="black" cx="2233" cy="-104" rx="58.54" ry="18"/>
<text text-anchor="middle" x="2233" y="-99.8" font-family="Times,serif" font-size="14.00">FilesService</text>
</g>
<!-- FilesService&#45;&gt;FilesModule -->
<g id="edge33" class="edge">
<title>FilesService&#45;&gt;FilesModule</title>
<path fill="none" stroke="black" d="M2278.59,-115.39C2278.59,-123.14 2278.59,-132 2278.59,-132 2278.59,-132 2583.8,-132 2583.8,-132 2583.8,-132 2583.8,-151.85 2583.8,-151.85"/>
<polygon fill="black" stroke="black" points="2580.3,-151.85 2583.8,-161.85 2587.3,-151.85 2580.3,-151.85"/>
</g>
<!-- OrdersService -->
<g id="node31" class="node">
<title>OrdersService</title>
<ellipse fill="#fdb462" stroke="black" cx="1633" cy="-397" rx="66.03" ry="18"/>
<text text-anchor="middle" x="1633" y="-392.8" font-family="Times,serif" font-size="14.00">OrdersService</text>
</g>
<!-- OrdersService&#45;&gt;OrdersModule -->
<g id="edge36" class="edge">
<title>OrdersService&#45;&gt;OrdersModule</title>
<path fill="none" stroke="black" d="M1681.05,-384.56C1681.05,-373.47 1681.05,-359 1681.05,-359 1681.05,-359 2515.85,-359 2515.85,-359 2515.85,-359 2515.85,-349.11 2515.85,-349.11"/>
<polygon fill="black" stroke="black" points="2519.35,-349.11 2515.85,-339.11 2512.35,-349.11 2519.35,-349.11"/>
</g>
<!-- PermissionsService -->
<g id="node33" class="node">
<title>PermissionsService</title>
<ellipse fill="#fdb462" stroke="black" cx="1582" cy="-245" rx="86.83" ry="18"/>
<text text-anchor="middle" x="1582" y="-240.8" font-family="Times,serif" font-size="14.00">PermissionsService</text>
</g>
<!-- PermissionsService&#45;&gt;PermissionsModule -->
<g id="edge38" class="edge">
<title>PermissionsService&#45;&gt;PermissionsModule</title>
<path fill="none" stroke="black" d="M1582,-226.81C1582,-218.72 1582,-211 1582,-211 1582,-211 2174.2,-211 2174.2,-211 2174.2,-211 2174.2,-208.03 2174.2,-208.03"/>
<polygon fill="black" stroke="black" points="2177.7,-208.03 2174.2,-198.03 2170.7,-208.03 2177.7,-208.03"/>
</g>
<!-- ProductsService -->
<g id="node35" class="node">
<title>ProductsService</title>
<ellipse fill="#fdb462" stroke="black" cx="405" cy="-245" rx="73.57" ry="18"/>
<text text-anchor="middle" x="405" y="-240.8" font-family="Times,serif" font-size="14.00">ProductsService</text>
</g>
<!-- ProductsService&#45;&gt;ProductsModule -->
<g id="edge40" class="edge">
<title>ProductsService&#45;&gt;ProductsModule</title>
<path fill="none" stroke="black" d="M405,-226.85C405,-214.73 405,-201 405,-201 405,-201 2434.92,-201 2434.92,-201 2434.92,-201 2434.92,-200.71 2434.92,-200.71"/>
<polygon fill="black" stroke="black" points="2438.43,-208.08 2434.92,-198.08 2431.43,-208.08 2438.43,-208.08"/>
</g>
<!-- PromotionsService -->
<g id="node37" class="node">
<title>PromotionsService</title>
<ellipse fill="#fdb462" stroke="black" cx="738" cy="-245" rx="84.55" ry="18"/>
<text text-anchor="middle" x="738" y="-240.8" font-family="Times,serif" font-size="14.00">PromotionsService</text>
</g>
<!-- PromotionsService&#45;&gt;PromotionsModule -->
<g id="edge42" class="edge">
<title>PromotionsService&#45;&gt;PromotionsModule</title>
<path fill="none" stroke="black" d="M738,-226.72C738,-205.68 738,-174 738,-174 738,-174 1852.85,-174 1852.85,-174"/>
<polygon fill="black" stroke="black" points="1852.85,-177.5 1862.85,-174 1852.85,-170.5 1852.85,-177.5"/>
</g>
<!-- ReviewsService -->
<g id="node39" class="node">
<title>ReviewsService</title>
<ellipse fill="#fdb462" stroke="black" cx="3741" cy="-321" rx="73.49" ry="18"/>
<text text-anchor="middle" x="3741" y="-316.8" font-family="Times,serif" font-size="14.00">ReviewsService</text>
</g>
<!-- ReviewsService&#45;&gt;ReviewsModule -->
<g id="edge45" class="edge">
<title>ReviewsService&#45;&gt;ReviewsModule</title>
<path fill="none" stroke="black" d="M3741,-302.97C3741,-282.23 3741,-251 3741,-251 3741,-251 2749.77,-251 2749.77,-251"/>
<polygon fill="black" stroke="black" points="2749.77,-247.5 2739.77,-251 2749.77,-254.5 2749.77,-247.5"/>
</g>
</g>
</svg>
