<?xml version="1.0" encoding="UTF-8" standalone="no"?>
<!DOCTYPE svg PUBLIC "-//W3C//DTD SVG 1.1//EN"
 "http://www.w3.org/Graphics/SVG/1.1/DTD/svg11.dtd">
<!-- Generated by graphviz version 2.47.0 (20210316.0004)
 -->
<!-- Title: dependencies Pages: 1 -->
<svg width="504pt" height="284pt"
 viewBox="0.00 0.00 504.00 284.00" xmlns="http://www.w3.org/2000/svg" xmlns:xlink="http://www.w3.org/1999/xlink">
<g id="graph0" class="graph" transform="scale(1 1) rotate(0) translate(4 280)">
<title>dependencies</title>
<polygon fill="white" stroke="transparent" points="-4,4 -4,-280 500,-280 500,4 -4,4"/>
<text text-anchor="start" x="227.01" y="-42.4" font-family="Times-12" font-weight="bold" font-size="14.00">Legend</text>
<polygon fill="#ffffb3" stroke="transparent" points="14,-10 14,-30 34,-30 34,-10 14,-10"/>
<text text-anchor="start" x="37.63" y="-15.4" font-family="Times-12" font-size="14.00"> &#160;Declarations</text>
<polygon fill="#8dd3c7" stroke="transparent" points="127,-10 127,-30 147,-30 147,-10 127,-10"/>
<text text-anchor="start" x="150.73" y="-15.4" font-family="Times-12" font-size="14.00"> &#160;Module</text>
<polygon fill="#80b1d3" stroke="transparent" points="213,-10 213,-30 233,-30 233,-10 213,-10"/>
<text text-anchor="start" x="236.78" y="-15.4" font-family="Times-12" font-size="14.00"> &#160;Bootstrap</text>
<polygon fill="#fdb462" stroke="transparent" points="310,-10 310,-30 330,-30 330,-10 310,-10"/>
<text text-anchor="start" x="333.67" y="-15.4" font-family="Times-12" font-size="14.00"> &#160;Providers</text>
<polygon fill="#fb8072" stroke="transparent" points="406,-10 406,-30 426,-30 426,-10 406,-10"/>
<text text-anchor="start" x="429.73" y="-15.4" font-family="Times-12" font-size="14.00"> &#160;Exports</text>
<g id="clust1" class="cluster">
<title>cluster_ReviewsModule</title>
<polygon fill="none" stroke="black" stroke-dasharray="1,5" points="93,-70 93,-268 403,-268 403,-70 93,-70"/>
</g>
<g id="clust4" class="cluster">
<title>cluster_ReviewsModule_exports</title>
<polygon fill="none" stroke="black" points="194,-208 194,-260 320,-260 320,-208 194,-208"/>
</g>
<g id="clust3" class="cluster">
<title>cluster_ReviewsModule_imports</title>
<polygon fill="none" stroke="black" points="271,-78 271,-130 395,-130 395,-78 271,-78"/>
</g>
<g id="clust6" class="cluster">
<title>cluster_ReviewsModule_providers</title>
<polygon fill="none" stroke="black" points="101,-78 101,-130 263,-130 263,-78 101,-78"/>
</g>
<!-- ProductsModule -->
<g id="node1" class="node">
<title>ProductsModule</title>
<polygon fill="#8dd3c7" stroke="black" points="387.04,-122 384.04,-126 363.04,-126 360.04,-122 278.96,-122 278.96,-86 387.04,-86 387.04,-122"/>
<text text-anchor="middle" x="333" y="-99.8" font-family="Times,serif" font-size="14.00">ProductsModule</text>
</g>
<!-- ReviewsModule -->
<g id="node2" class="node">
<title>ReviewsModule</title>
<polygon fill="#8dd3c7" stroke="black" points="310.76,-187 307.76,-191 286.76,-191 283.76,-187 203.24,-187 203.24,-151 310.76,-151 310.76,-187"/>
<text text-anchor="middle" x="257" y="-164.8" font-family="Times,serif" font-size="14.00">ReviewsModule</text>
</g>
<!-- ProductsModule&#45;&gt;ReviewsModule -->
<g id="edge1" class="edge">
<title>ProductsModule&#45;&gt;ReviewsModule</title>
<path fill="none" stroke="black" d="M294.8,-122.11C294.8,-122.11 294.8,-140.99 294.8,-140.99"/>
<polygon fill="black" stroke="black" points="291.3,-140.99 294.8,-150.99 298.3,-140.99 291.3,-140.99"/>
</g>
<!-- ReviewsService  -->
<g id="node3" class="node">
<title>ReviewsService </title>
<polygon fill="#fb8072" stroke="black" points="311.69,-252 202.31,-252 202.31,-216 311.69,-216 311.69,-252"/>
<text text-anchor="middle" x="257" y="-229.8" font-family="Times,serif" font-size="14.00">ReviewsService </text>
</g>
<!-- ReviewsModule&#45;&gt;ReviewsService  -->
<g id="edge2" class="edge">
<title>ReviewsModule&#45;&gt;ReviewsService </title>
<path fill="none" stroke="black" stroke-dasharray="5,2" d="M257,-187.11C257,-187.11 257,-205.99 257,-205.99"/>
<polygon fill="black" stroke="black" points="253.5,-205.99 257,-215.99 260.5,-205.99 253.5,-205.99"/>
</g>
<!-- ReviewsService -->
<g id="node4" class="node">
<title>ReviewsService</title>
<ellipse fill="#fdb462" stroke="black" cx="182" cy="-104" rx="73.49" ry="18"/>
<text text-anchor="middle" x="182" y="-99.8" font-family="Times,serif" font-size="14.00">ReviewsService</text>
</g>
<!-- ReviewsService&#45;&gt;ReviewsModule -->
<g id="edge3" class="edge">
<title>ReviewsService&#45;&gt;ReviewsModule</title>
<path fill="none" stroke="black" d="M229.18,-117.78C229.18,-117.78 229.18,-140.55 229.18,-140.55"/>
<polygon fill="black" stroke="black" points="225.68,-140.55 229.18,-150.55 232.68,-140.55 225.68,-140.55"/>
</g>
</g>
</svg>
