<?xml version="1.0" encoding="UTF-8" standalone="no"?>
<!DOCTYPE svg PUBLIC "-//W3C//DTD SVG 1.1//EN"
 "http://www.w3.org/Graphics/SVG/1.1/DTD/svg11.dtd">
<!-- Generated by graphviz version 2.47.0 (20210316.0004)
 -->
<!-- Title: dependencies Pages: 1 -->
<svg width="2108pt" height="211pt"
 viewBox="0.00 0.00 2108.00 211.00" xmlns="http://www.w3.org/2000/svg" xmlns:xlink="http://www.w3.org/1999/xlink">
<g id="graph0" class="graph" transform="scale(1 1) rotate(0) translate(4 207)">
<title>dependencies</title>
<polygon fill="white" stroke="transparent" points="-4,4 -4,-207 2104,-207 2104,4 -4,4"/>
<text text-anchor="start" x="1029.01" y="-42.4" font-family="Times-12" font-weight="bold" font-size="14.00">Legend</text>
<polygon fill="#ffffb3" stroke="transparent" points="816,-10 816,-30 836,-30 836,-10 816,-10"/>
<text text-anchor="start" x="839.63" y="-15.4" font-family="Times-12" font-size="14.00"> &#160;Declarations</text>
<polygon fill="#8dd3c7" stroke="transparent" points="929,-10 929,-30 949,-30 949,-10 929,-10"/>
<text text-anchor="start" x="952.73" y="-15.4" font-family="Times-12" font-size="14.00"> &#160;Module</text>
<polygon fill="#80b1d3" stroke="transparent" points="1015,-10 1015,-30 1035,-30 1035,-10 1015,-10"/>
<text text-anchor="start" x="1038.78" y="-15.4" font-family="Times-12" font-size="14.00"> &#160;Bootstrap</text>
<polygon fill="#fdb462" stroke="transparent" points="1112,-10 1112,-30 1132,-30 1132,-10 1112,-10"/>
<text text-anchor="start" x="1135.67" y="-15.4" font-family="Times-12" font-size="14.00"> &#160;Providers</text>
<polygon fill="#fb8072" stroke="transparent" points="1208,-10 1208,-30 1228,-30 1228,-10 1208,-10"/>
<text text-anchor="start" x="1231.73" y="-15.4" font-family="Times-12" font-size="14.00"> &#160;Exports</text>
<g id="clust1" class="cluster">
<title>cluster_AppModule</title>
<polygon fill="none" stroke="black" stroke-dasharray="1,5" points="8,-70 8,-195 2092,-195 2092,-70 8,-70"/>
</g>
<g id="clust3" class="cluster">
<title>cluster_AppModule_imports</title>
<polygon fill="none" stroke="black" points="494,-78 494,-130 2084,-130 2084,-78 494,-78"/>
</g>
<g id="clust6" class="cluster">
<title>cluster_AppModule_providers</title>
<polygon fill="none" stroke="black" points="16,-78 16,-130 486,-130 486,-78 16,-78"/>
</g>
<!-- AddressesModule -->
<g id="node1" class="node">
<title>AddressesModule</title>
<polygon fill="#8dd3c7" stroke="black" points="2075.58,-122 2072.58,-126 2051.58,-126 2048.58,-122 1958.42,-122 1958.42,-86 2075.58,-86 2075.58,-122"/>
<text text-anchor="middle" x="2017" y="-99.8" font-family="Times,serif" font-size="14.00">AddressesModule</text>
</g>
<!-- AppModule -->
<g id="node14" class="node">
<title>AppModule</title>
<polygon fill="#8dd3c7" stroke="black" points="1152.66,-187 1149.66,-191 1128.66,-191 1125.66,-187 1069.34,-187 1069.34,-151 1152.66,-151 1152.66,-187"/>
<text text-anchor="middle" x="1111" y="-164.8" font-family="Times,serif" font-size="14.00">AppModule</text>
</g>
<!-- AddressesModule&#45;&gt;AppModule -->
<g id="edge1" class="edge">
<title>AddressesModule&#45;&gt;AppModule</title>
<path fill="none" stroke="black" d="M2017,-122.32C2017,-145.66 2017,-183 2017,-183 2017,-183 1162.88,-183 1162.88,-183"/>
<polygon fill="black" stroke="black" points="1162.88,-179.5 1152.88,-183 1162.88,-186.5 1162.88,-179.5"/>
</g>
<!-- AuthModule -->
<g id="node2" class="node">
<title>AuthModule</title>
<polygon fill="#8dd3c7" stroke="black" points="1940.55,-122 1937.55,-126 1916.55,-126 1913.55,-122 1853.45,-122 1853.45,-86 1940.55,-86 1940.55,-122"/>
<text text-anchor="middle" x="1897" y="-99.8" font-family="Times,serif" font-size="14.00">AuthModule</text>
</g>
<!-- AuthModule&#45;&gt;AppModule -->
<g id="edge2" class="edge">
<title>AuthModule&#45;&gt;AppModule</title>
<path fill="none" stroke="black" d="M1897,-122.29C1897,-144.21 1897,-178 1897,-178 1897,-178 1162.7,-178 1162.7,-178"/>
<polygon fill="black" stroke="black" points="1162.7,-174.5 1152.7,-178 1162.7,-181.5 1162.7,-174.5"/>
</g>
<!-- CartsModule -->
<g id="node3" class="node">
<title>CartsModule</title>
<polygon fill="#8dd3c7" stroke="black" points="1835.6,-122 1832.6,-126 1811.6,-126 1808.6,-122 1746.4,-122 1746.4,-86 1835.6,-86 1835.6,-122"/>
<text text-anchor="middle" x="1791" y="-99.8" font-family="Times,serif" font-size="14.00">CartsModule</text>
</g>
<!-- CartsModule&#45;&gt;AppModule -->
<g id="edge3" class="edge">
<title>CartsModule&#45;&gt;AppModule</title>
<path fill="none" stroke="black" d="M1791,-122.03C1791,-142.77 1791,-174 1791,-174 1791,-174 1162.77,-174 1162.77,-174"/>
<polygon fill="black" stroke="black" points="1162.77,-170.5 1152.77,-174 1162.77,-177.5 1162.77,-170.5"/>
</g>
<!-- CategoriesModule -->
<g id="node4" class="node">
<title>CategoriesModule</title>
<polygon fill="#8dd3c7" stroke="black" points="1728.92,-122 1725.92,-126 1704.92,-126 1701.92,-122 1609.08,-122 1609.08,-86 1728.92,-86 1728.92,-122"/>
<text text-anchor="middle" x="1669" y="-99.8" font-family="Times,serif" font-size="14.00">CategoriesModule</text>
</g>
<!-- CategoriesModule&#45;&gt;AppModule -->
<g id="edge4" class="edge">
<title>CategoriesModule&#45;&gt;AppModule</title>
<path fill="none" stroke="black" d="M1669,-122.11C1669,-141.34 1669,-169 1669,-169 1669,-169 1162.94,-169 1162.94,-169"/>
<polygon fill="black" stroke="black" points="1162.94,-165.5 1152.94,-169 1162.94,-172.5 1162.94,-165.5"/>
</g>
<!-- DatabaseModule -->
<g id="node5" class="node">
<title>DatabaseModule</title>
<polygon fill="#8dd3c7" stroke="black" points="1591.35,-122 1588.35,-126 1567.35,-126 1564.35,-122 1480.65,-122 1480.65,-86 1591.35,-86 1591.35,-122"/>
<text text-anchor="middle" x="1536" y="-99.8" font-family="Times,serif" font-size="14.00">DatabaseModule</text>
</g>
<!-- DatabaseModule&#45;&gt;AppModule -->
<g id="edge5" class="edge">
<title>DatabaseModule&#45;&gt;AppModule</title>
<path fill="none" stroke="black" d="M1536,-122.3C1536,-140.27 1536,-165 1536,-165 1536,-165 1162.91,-165 1162.91,-165"/>
<polygon fill="black" stroke="black" points="1162.91,-161.5 1152.91,-165 1162.91,-168.5 1162.91,-161.5"/>
</g>
<!-- FilesModule -->
<g id="node6" class="node">
<title>FilesModule</title>
<polygon fill="#8dd3c7" stroke="black" points="1462.27,-122 1459.27,-126 1438.27,-126 1435.27,-122 1375.73,-122 1375.73,-86 1462.27,-86 1462.27,-122"/>
<text text-anchor="middle" x="1419" y="-99.8" font-family="Times,serif" font-size="14.00">FilesModule</text>
</g>
<!-- FilesModule&#45;&gt;AppModule -->
<g id="edge6" class="edge">
<title>FilesModule&#45;&gt;AppModule</title>
<path fill="none" stroke="black" d="M1419,-122.03C1419,-138.4 1419,-160 1419,-160 1419,-160 1162.86,-160 1162.86,-160"/>
<polygon fill="black" stroke="black" points="1162.86,-156.5 1152.86,-160 1162.86,-163.5 1162.86,-156.5"/>
</g>
<!-- OrdersModule -->
<g id="node7" class="node">
<title>OrdersModule</title>
<polygon fill="#8dd3c7" stroke="black" points="1357.64,-122 1354.64,-126 1333.64,-126 1330.64,-122 1260.36,-122 1260.36,-86 1357.64,-86 1357.64,-122"/>
<text text-anchor="middle" x="1309" y="-99.8" font-family="Times,serif" font-size="14.00">OrdersModule</text>
</g>
<!-- OrdersModule&#45;&gt;AppModule -->
<g id="edge7" class="edge">
<title>OrdersModule&#45;&gt;AppModule</title>
<path fill="none" stroke="black" d="M1309,-122.19C1309,-137.18 1309,-156 1309,-156 1309,-156 1162.99,-156 1162.99,-156"/>
<polygon fill="black" stroke="black" points="1162.99,-152.5 1152.99,-156 1162.99,-159.5 1162.99,-152.5"/>
</g>
<!-- PermissionsModule -->
<g id="node8" class="node">
<title>PermissionsModule</title>
<polygon fill="#8dd3c7" stroke="black" points="1242.71,-122 1239.71,-126 1218.71,-126 1215.71,-122 1115.29,-122 1115.29,-86 1242.71,-86 1242.71,-122"/>
<text text-anchor="middle" x="1179" y="-99.8" font-family="Times,serif" font-size="14.00">PermissionsModule</text>
</g>
<!-- PermissionsModule&#45;&gt;AppModule -->
<g id="edge8" class="edge">
<title>PermissionsModule&#45;&gt;AppModule</title>
<path fill="none" stroke="black" d="M1134.11,-122.11C1134.11,-122.11 1134.11,-140.99 1134.11,-140.99"/>
<polygon fill="black" stroke="black" points="1130.61,-140.99 1134.11,-150.99 1137.61,-140.99 1130.61,-140.99"/>
</g>
<!-- ProductsModule -->
<g id="node9" class="node">
<title>ProductsModule</title>
<polygon fill="#8dd3c7" stroke="black" points="1097.04,-122 1094.04,-126 1073.04,-126 1070.04,-122 988.96,-122 988.96,-86 1097.04,-86 1097.04,-122"/>
<text text-anchor="middle" x="1043" y="-99.8" font-family="Times,serif" font-size="14.00">ProductsModule</text>
</g>
<!-- ProductsModule&#45;&gt;AppModule -->
<g id="edge9" class="edge">
<title>ProductsModule&#45;&gt;AppModule</title>
<path fill="none" stroke="black" d="M1083.22,-122.11C1083.22,-122.11 1083.22,-140.99 1083.22,-140.99"/>
<polygon fill="black" stroke="black" points="1079.72,-140.99 1083.22,-150.99 1086.72,-140.99 1079.72,-140.99"/>
</g>
<!-- PromotionsModule -->
<g id="node10" class="node">
<title>PromotionsModule</title>
<polygon fill="#8dd3c7" stroke="black" points="971.11,-122 968.11,-126 947.11,-126 944.11,-122 846.89,-122 846.89,-86 971.11,-86 971.11,-122"/>
<text text-anchor="middle" x="909" y="-99.8" font-family="Times,serif" font-size="14.00">PromotionsModule</text>
</g>
<!-- PromotionsModule&#45;&gt;AppModule -->
<g id="edge10" class="edge">
<title>PromotionsModule&#45;&gt;AppModule</title>
<path fill="none" stroke="black" d="M909,-122.19C909,-137.18 909,-156 909,-156 909,-156 1059.15,-156 1059.15,-156"/>
<polygon fill="black" stroke="black" points="1059.15,-159.5 1069.15,-156 1059.15,-152.5 1059.15,-159.5"/>
</g>
<!-- ReviewsModule -->
<g id="node11" class="node">
<title>ReviewsModule</title>
<polygon fill="#8dd3c7" stroke="black" points="828.76,-122 825.76,-126 804.76,-126 801.76,-122 721.24,-122 721.24,-86 828.76,-86 828.76,-122"/>
<text text-anchor="middle" x="775" y="-99.8" font-family="Times,serif" font-size="14.00">ReviewsModule</text>
</g>
<!-- ReviewsModule&#45;&gt;AppModule -->
<g id="edge11" class="edge">
<title>ReviewsModule&#45;&gt;AppModule</title>
<path fill="none" stroke="black" d="M775,-122.03C775,-138.4 775,-160 775,-160 775,-160 1059.12,-160 1059.12,-160"/>
<polygon fill="black" stroke="black" points="1059.12,-163.5 1069.12,-160 1059.12,-156.5 1059.12,-163.5"/>
</g>
<!-- RolesModule -->
<g id="node12" class="node">
<title>RolesModule</title>
<polygon fill="#8dd3c7" stroke="black" points="702.94,-122 699.94,-126 678.94,-126 675.94,-122 611.06,-122 611.06,-86 702.94,-86 702.94,-122"/>
<text text-anchor="middle" x="657" y="-99.8" font-family="Times,serif" font-size="14.00">RolesModule</text>
</g>
<!-- RolesModule&#45;&gt;AppModule -->
<g id="edge12" class="edge">
<title>RolesModule&#45;&gt;AppModule</title>
<path fill="none" stroke="black" d="M657,-122.3C657,-140.27 657,-165 657,-165 657,-165 1059.1,-165 1059.1,-165"/>
<polygon fill="black" stroke="black" points="1059.1,-168.5 1069.1,-165 1059.1,-161.5 1059.1,-168.5"/>
</g>
<!-- UsersModule -->
<g id="node13" class="node">
<title>UsersModule</title>
<polygon fill="#8dd3c7" stroke="black" points="593.92,-122 590.92,-126 569.92,-126 566.92,-122 502.08,-122 502.08,-86 593.92,-86 593.92,-122"/>
<text text-anchor="middle" x="548" y="-99.8" font-family="Times,serif" font-size="14.00">UsersModule</text>
</g>
<!-- UsersModule&#45;&gt;AppModule -->
<g id="edge13" class="edge">
<title>UsersModule&#45;&gt;AppModule</title>
<path fill="none" stroke="black" d="M548,-122.11C548,-141.34 548,-169 548,-169 548,-169 1059.14,-169 1059.14,-169"/>
<polygon fill="black" stroke="black" points="1059.14,-172.5 1069.14,-169 1059.14,-165.5 1059.14,-172.5"/>
</g>
<!-- AppService -->
<g id="node15" class="node">
<title>AppService</title>
<ellipse fill="#fdb462" stroke="black" cx="421" cy="-104" rx="56.74" ry="18"/>
<text text-anchor="middle" x="421" y="-99.8" font-family="Times,serif" font-size="14.00">AppService</text>
</g>
<!-- AppService&#45;&gt;AppModule -->
<g id="edge14" class="edge">
<title>AppService&#45;&gt;AppModule</title>
<path fill="none" stroke="black" d="M421,-122.03C421,-142.77 421,-174 421,-174 421,-174 1059.13,-174 1059.13,-174"/>
<polygon fill="black" stroke="black" points="1059.13,-177.5 1069.13,-174 1059.13,-170.5 1059.13,-177.5"/>
</g>
<!-- CartExistsRule -->
<g id="node16" class="node">
<title>CartExistsRule</title>
<ellipse fill="#fdb462" stroke="black" cx="277" cy="-104" rx="69.51" ry="18"/>
<text text-anchor="middle" x="277" y="-99.8" font-family="Times,serif" font-size="14.00">CartExistsRule</text>
</g>
<!-- CartExistsRule&#45;&gt;AppModule -->
<g id="edge15" class="edge">
<title>CartExistsRule&#45;&gt;AppModule</title>
<path fill="none" stroke="black" d="M277,-122.29C277,-144.21 277,-178 277,-178 277,-178 1059.07,-178 1059.07,-178"/>
<polygon fill="black" stroke="black" points="1059.07,-181.5 1069.07,-178 1059.07,-174.5 1059.07,-181.5"/>
</g>
<!-- ProductExistsRule -->
<g id="node17" class="node">
<title>ProductExistsRule</title>
<ellipse fill="#fdb462" stroke="black" cx="107" cy="-104" rx="82.84" ry="18"/>
<text text-anchor="middle" x="107" y="-99.8" font-family="Times,serif" font-size="14.00">ProductExistsRule</text>
</g>
<!-- ProductExistsRule&#45;&gt;AppModule -->
<g id="edge16" class="edge">
<title>ProductExistsRule&#45;&gt;AppModule</title>
<path fill="none" stroke="black" d="M107,-122.32C107,-145.66 107,-183 107,-183 107,-183 1059.14,-183 1059.14,-183"/>
<polygon fill="black" stroke="black" points="1059.14,-186.5 1069.14,-183 1059.14,-179.5 1059.14,-186.5"/>
</g>
</g>
</svg>
