<?xml version="1.0" encoding="UTF-8" standalone="no"?>
<!DOCTYPE svg PUBLIC "-//W3C//DTD SVG 1.1//EN"
 "http://www.w3.org/Graphics/SVG/1.1/DTD/svg11.dtd">
<!-- Generated by graphviz version 2.47.0 (20210316.0004)
 -->
<!-- Title: dependencies Pages: 1 -->
<svg width="586pt" height="284pt"
 viewBox="0.00 0.00 586.00 284.00" xmlns="http://www.w3.org/2000/svg" xmlns:xlink="http://www.w3.org/1999/xlink">
<g id="graph0" class="graph" transform="scale(1 1) rotate(0) translate(4 280)">
<title>dependencies</title>
<polygon fill="white" stroke="transparent" points="-4,4 -4,-280 582,-280 582,4 -4,4"/>
<text text-anchor="start" x="268.01" y="-42.4" font-family="Times-12" font-weight="bold" font-size="14.00">Legend</text>
<polygon fill="#ffffb3" stroke="transparent" points="55,-10 55,-30 75,-30 75,-10 55,-10"/>
<text text-anchor="start" x="78.63" y="-15.4" font-family="Times-12" font-size="14.00"> &#160;Declarations</text>
<polygon fill="#8dd3c7" stroke="transparent" points="168,-10 168,-30 188,-30 188,-10 168,-10"/>
<text text-anchor="start" x="191.73" y="-15.4" font-family="Times-12" font-size="14.00"> &#160;Module</text>
<polygon fill="#80b1d3" stroke="transparent" points="254,-10 254,-30 274,-30 274,-10 254,-10"/>
<text text-anchor="start" x="277.78" y="-15.4" font-family="Times-12" font-size="14.00"> &#160;Bootstrap</text>
<polygon fill="#fdb462" stroke="transparent" points="351,-10 351,-30 371,-30 371,-10 351,-10"/>
<text text-anchor="start" x="374.67" y="-15.4" font-family="Times-12" font-size="14.00"> &#160;Providers</text>
<polygon fill="#fb8072" stroke="transparent" points="447,-10 447,-30 467,-30 467,-10 447,-10"/>
<text text-anchor="start" x="470.73" y="-15.4" font-family="Times-12" font-size="14.00"> &#160;Exports</text>
<g id="clust1" class="cluster">
<title>cluster_CartsModule</title>
<polygon fill="none" stroke="black" stroke-dasharray="1,5" points="8,-70 8,-268 570,-268 570,-70 8,-70"/>
</g>
<g id="clust4" class="cluster">
<title>cluster_CartsModule_exports</title>
<polygon fill="none" stroke="black" points="231,-208 231,-260 339,-260 339,-208 231,-208"/>
</g>
<g id="clust6" class="cluster">
<title>cluster_CartsModule_providers</title>
<polygon fill="none" stroke="black" points="426,-78 426,-130 562,-130 562,-78 426,-78"/>
</g>
<g id="clust3" class="cluster">
<title>cluster_CartsModule_imports</title>
<polygon fill="none" stroke="black" points="16,-78 16,-130 418,-130 418,-78 16,-78"/>
</g>
<!-- AddressesModule -->
<g id="node1" class="node">
<title>AddressesModule</title>
<polygon fill="#8dd3c7" stroke="black" points="409.58,-122 406.58,-126 385.58,-126 382.58,-122 292.42,-122 292.42,-86 409.58,-86 409.58,-122"/>
<text text-anchor="middle" x="351" y="-99.8" font-family="Times,serif" font-size="14.00">AddressesModule</text>
</g>
<!-- CartsModule -->
<g id="node4" class="node">
<title>CartsModule</title>
<polygon fill="#8dd3c7" stroke="black" points="329.6,-187 326.6,-191 305.6,-191 302.6,-187 240.4,-187 240.4,-151 329.6,-151 329.6,-187"/>
<text text-anchor="middle" x="285" y="-164.8" font-family="Times,serif" font-size="14.00">CartsModule</text>
</g>
<!-- AddressesModule&#45;&gt;CartsModule -->
<g id="edge1" class="edge">
<title>AddressesModule&#45;&gt;CartsModule</title>
<path fill="none" stroke="black" d="M311,-122.11C311,-122.11 311,-140.99 311,-140.99"/>
<polygon fill="black" stroke="black" points="307.5,-140.99 311,-150.99 314.5,-140.99 307.5,-140.99"/>
</g>
<!-- ProductsModule -->
<g id="node2" class="node">
<title>ProductsModule</title>
<polygon fill="#8dd3c7" stroke="black" points="274.04,-122 271.04,-126 250.04,-126 247.04,-122 165.96,-122 165.96,-86 274.04,-86 274.04,-122"/>
<text text-anchor="middle" x="220" y="-99.8" font-family="Times,serif" font-size="14.00">ProductsModule</text>
</g>
<!-- ProductsModule&#45;&gt;CartsModule -->
<g id="edge2" class="edge">
<title>ProductsModule&#45;&gt;CartsModule</title>
<path fill="none" stroke="black" d="M257.36,-122.11C257.36,-122.11 257.36,-140.99 257.36,-140.99"/>
<polygon fill="black" stroke="black" points="253.86,-140.99 257.36,-150.99 260.86,-140.99 253.86,-140.99"/>
</g>
<!-- PromotionsModule -->
<g id="node3" class="node">
<title>PromotionsModule</title>
<polygon fill="#8dd3c7" stroke="black" points="148.11,-122 145.11,-126 124.11,-126 121.11,-122 23.89,-122 23.89,-86 148.11,-86 148.11,-122"/>
<text text-anchor="middle" x="86" y="-99.8" font-family="Times,serif" font-size="14.00">PromotionsModule</text>
</g>
<!-- PromotionsModule&#45;&gt;CartsModule -->
<g id="edge3" class="edge">
<title>PromotionsModule&#45;&gt;CartsModule</title>
<path fill="none" stroke="black" d="M86,-122.11C86,-141.34 86,-169 86,-169 86,-169 230.34,-169 230.34,-169"/>
<polygon fill="black" stroke="black" points="230.34,-172.5 240.34,-169 230.34,-165.5 230.34,-172.5"/>
</g>
<!-- CartsService  -->
<g id="node5" class="node">
<title>CartsService </title>
<polygon fill="#fb8072" stroke="black" points="330.52,-252 239.48,-252 239.48,-216 330.52,-216 330.52,-252"/>
<text text-anchor="middle" x="285" y="-229.8" font-family="Times,serif" font-size="14.00">CartsService </text>
</g>
<!-- CartsModule&#45;&gt;CartsService  -->
<g id="edge4" class="edge">
<title>CartsModule&#45;&gt;CartsService </title>
<path fill="none" stroke="black" stroke-dasharray="5,2" d="M285,-187.11C285,-187.11 285,-205.99 285,-205.99"/>
<polygon fill="black" stroke="black" points="281.5,-205.99 285,-215.99 288.5,-205.99 281.5,-205.99"/>
</g>
<!-- CartsService -->
<g id="node6" class="node">
<title>CartsService</title>
<ellipse fill="#fdb462" stroke="black" cx="494" cy="-104" rx="60.25" ry="18"/>
<text text-anchor="middle" x="494" y="-99.8" font-family="Times,serif" font-size="14.00">CartsService</text>
</g>
<!-- CartsService&#45;&gt;CartsModule -->
<g id="edge5" class="edge">
<title>CartsService&#45;&gt;CartsModule</title>
<path fill="none" stroke="black" d="M494,-122.11C494,-141.34 494,-169 494,-169 494,-169 339.58,-169 339.58,-169"/>
<polygon fill="black" stroke="black" points="339.58,-165.5 329.58,-169 339.58,-172.5 339.58,-165.5"/>
</g>
</g>
</svg>
